# xmcd
#
# Track frame offsets: 
#        150
#        19468
#        35728
#        62263
#        85053
#        101695
#        127058
#        152485
#        171885
#        192420
#
# Disc length: 2906 seconds
#
# Revision: 2
# Processed by: cddbd v1.5.2PL0 Copyright (c) Steve Scherf et al.
# Submitted via: ExactAudioCopy v1.0b3
#
DISCID=810b580a
DTITLE=Various Artist - Dong nuoc mat
DYEAR=1989
DGENRE=
TTITLE0=Vy Lan - Tinh den roi di
TTITLE1=Elvis Phuong - Thanh pho mua bay
TTITLE2=Ngoc Lan - Uot mi
TTITLE3=Tuan Anh - Hanh phuc lang thang
TTITLE4=Kieu Nga - Anh da quen mua thu
TTITLE5=Tuan Vu - Con nho hay khong (Hoa hoc tro)
TTITLE6=Thai Hien - Dong nuoc mat
TTITLE7=Kieu Nga - Xin con goi ten nhau
TTITLE8=Huong Lan - Dem dong
TTITLE9=Nhu Mai - Diem xua
EXTD=
EXTT0=
EXTT1=
EXTT2=
EXTT3=
EXTT4=
EXTT5=
EXTT6=
EXTT7=
EXTT8=
EXTT9=
PLAYORDER=
